<?xml version="1.0" encoding="UTF-8"?>
<svg version="1.1" xmlns="http://www.w3.org/2000/svg" width="475" height="475">
<path d="M0 0 C0.74507813 0.30035156 1.49015625 0.60070312 2.2578125 0.91015625 C11.32919732 5.01895996 20.23936639 12.23041176 25 21 C14.71426792 33.73314099 1.41669446 42.54057012 -15 45 C-33.53596169 46.52873911 -48.59429225 40.97394041 -62.72265625 29.1484375 C-67.78068086 24.37671617 -67.78068086 24.37671617 -68.39453125 20.5234375 C-67.47997714 14.67391317 -61.94143811 10.50867172 -57.4765625 7.0390625 C-40.14079234 -4.60284767 -19.50477117 -7.98424769 0 0 Z M-27 2 C-26.34 3.98 -25.68 5.96 -25 8 C-28.36423277 10.96052484 -31.69159287 11.92289822 -36 13 C-35.34 13.66 -34.68 14.32 -34 15 C-33.01 15 -32.02 15 -31 15 C-31 16.32 -31 17.64 -31 19 C-35.455 18.01 -35.455 18.01 -40 17 C-40.93786082 22.05009595 -40.93786082 22.05009595 -40 27 C-39.030625 27.28875 -38.06125 27.5775 -37.0625 27.875 C-34 29 -34 29 -32.625 31.625 C-32.41875 32.40875 -32.2125 33.1925 -32 34 C-28.65384408 33.26856072 -28.65384408 33.26856072 -27.25 29.6875 C-25.85010528 25.71714418 -25.85010528 25.71714418 -27 22 C-27.33 21.01 -27.66 20.02 -28 19 C-27.01 19.33 -26.02 19.66 -25 20 C-24.67 18.68 -24.34 17.36 -24 16 C-23.4225 16.639375 -22.845 17.27875 -22.25 17.9375 C-20.01937599 19.98223868 -18.92563609 20.58205199 -16 21 C-15.67 20.34 -15.34 19.68 -15 19 C-14.34 19 -13.68 19 -13 19 C-12.34 20.32 -11.68 21.64 -11 23 C-8.9375006 21.18777466 -8.9375006 21.18777466 -7 19 C-7 18.01 -7 17.02 -7 16 C-6.01 16 -5.02 16 -4 16 C-5.21915058 9.7518533 -9.02547011 6.57575119 -14 3 C-17.01490557 1.99503148 -19.04181692 1.89664697 -22.1875 1.9375 C-23.08855469 1.94652344 -23.98960937 1.95554687 -24.91796875 1.96484375 C-25.94857422 1.98224609 -25.94857422 1.98224609 -27 2 Z M-33 9 C-32.67 9.66 -32.34 10.32 -32 11 C-31.34 10.34 -30.68 9.68 -30 9 C-30.99 9 -31.98 9 -33 9 Z M-11.8125 28.5 C-12.204375 28.995 -12.59625 29.49 -13 30 C-12.67 30.99 -12.34 31.98 -12 33 C-9.54775306 32.89386164 -9.54775306 32.89386164 -7 32 C-5.62533375 29.52363988 -5.62533375 29.52363988 -5 27 C-8.71736641 26.65099442 -8.71736641 26.65099442 -11.8125 28.5 Z M-25 36 C-25.33 36.99 -25.66 37.98 -26 39 C-23.36 39 -20.72 39 -18 39 C-18.33 38.34 -18.66 37.68 -19 37 C-22.02934491 36.34227572 -22.02934491 36.34227572 -25 36 Z " fill="#407C45" transform="translate(391,124)"/>
<path d="M0 0 C0.98613281 -0.01283524 1.97226563 -0.02567047 2.98828125 -0.03889465 C4.06722656 -0.04628159 5.14617187 -0.05366852 6.2578125 -0.0612793 C7.92650391 -0.07338692 7.92650391 -0.07338692 9.62890625 -0.08573914 C11.99965851 -0.09961474 14.37043104 -0.11032122 16.74121094 -0.11816406 C20.31225913 -0.13516221 23.88232849 -0.17898935 27.453125 -0.22338867 C46.86062279 -0.35692221 65.12066009 0.70484423 80.2578125 14.42700195 C85.20542793 19.78691867 89.48420133 26.85973955 90.3828125 34.17700195 C89.3828125 35.17700195 89.3828125 35.17700195 87.52514648 35.29052734 C86.33900757 35.28267212 86.33900757 35.28267212 85.12890625 35.2746582 C84.27490234 35.27143555 83.42089844 35.26821289 82.54101562 35.26489258 C81.19426758 35.25232422 81.19426758 35.25232422 79.8203125 35.23950195 C78.91861328 35.23499023 78.01691406 35.23047852 77.08789062 35.22583008 C74.85279936 35.2140042 72.61783813 35.19752415 70.3828125 35.17700195 C70.10308594 34.42676758 69.82335937 33.6765332 69.53515625 32.90356445 C66.0057251 23.89273379 61.71657023 13.50277581 52.3671875 9.26293945 C44.40339335 6.72900495 36.69558613 6.52923812 28.3828125 6.17700195 C28.3828125 15.74700195 28.3828125 25.31700195 28.3828125 35.17700195 C23.21625 35.20793945 23.21625 35.20793945 17.9453125 35.23950195 C16.85806885 35.24860596 15.7708252 35.25770996 14.65063477 35.26708984 C13.80041748 35.2695874 12.9502002 35.27208496 12.07421875 35.2746582 C11.19967041 35.27989502 10.32512207 35.28513184 9.42407227 35.29052734 C7.3828125 35.17700195 7.3828125 35.17700195 6.3828125 34.17700195 C6.29505645 32.03141369 6.27586031 29.88295774 6.28515625 27.7355957 C6.28837891 26.43041992 6.29160156 25.12524414 6.29492188 23.78051758 C6.30327849 22.39184506 6.31174345 21.00317318 6.3203125 19.61450195 C6.32532584 18.2219254 6.32988903 16.82934714 6.33398438 15.43676758 C6.34581816 12.01680325 6.3623037 8.59692351 6.3828125 5.17700195 C2.7528125 5.17700195 -0.8771875 5.17700195 -4.6171875 5.17700195 C-4.9471875 3.85700195 -5.2771875 2.53700195 -5.6171875 1.17700195 C-4.00200855 -0.438177 -2.23392139 0.02526914 0 0 Z " fill="#3F7D45" transform="translate(250.6171875,179.822998046875)"/>
<path d="M0 0 C0.87454834 0.00523682 1.74909668 0.01047363 2.65014648 0.01586914 C3.50036377 0.0183667 4.35058105 0.02086426 5.2265625 0.0234375 C6.85742798 0.03709351 6.85742798 0.03709351 8.52124023 0.05102539 C11.96561523 0.07165039 15.40999023 0.09227539 18.95874023 0.11352539 C18.95874023 9.02352539 18.95874023 17.93352539 18.95874023 27.11352539 C34.23520333 26.92818633 34.23520333 26.92818633 47.58374023 20.42602539 C52.77754828 14.72399269 55.72279362 6.98281558 58.95874023 0.11352539 C65.55874023 0.11352539 72.15874023 0.11352539 78.95874023 0.11352539 C79.95874023 3.11352539 79.95874023 3.11352539 78.91967773 5.60180664 C71.74188401 18.38393685 62.8737667 26.12724315 48.95874023 31.11352539 C41.44440191 33.16694708 34.13714548 33.38104776 26.38842773 33.30883789 C25.22618683 33.306008 24.06394592 33.3031781 22.8664856 33.30026245 C19.18879486 33.28915198 15.51135619 33.26406439 11.83374023 33.23852539 C9.32593127 33.22848379 6.81811846 33.21936001 4.31030273 33.21118164 C-1.80696939 33.18924261 -7.92409656 33.15585704 -14.04125977 33.11352539 C-14.60375977 31.17602539 -14.60375977 31.17602539 -15.04125977 29.11352539 C-14.04125977 28.11352539 -14.04125977 28.11352539 -11.53735352 28.01586914 C-10.52801758 28.0274707 -9.51868164 28.03907227 -8.47875977 28.05102539 C-7.4668457 28.06004883 -6.45493164 28.06907227 -5.41235352 28.07836914 C-4.23866211 28.09577148 -4.23866211 28.09577148 -3.04125977 28.11352539 C-3.04649658 27.30085205 -3.0517334 26.48817871 -3.05712891 25.65087891 C-3.07782971 21.99260217 -3.09089779 18.33433772 -3.10375977 14.67602539 C-3.11632812 12.75693359 -3.11632812 12.75693359 -3.12915039 10.79907227 C-3.13398438 8.97666016 -3.13398438 8.97666016 -3.13891602 7.11743164 C-3.14415283 5.99151611 -3.14938965 4.86560059 -3.15478516 3.70556641 C-2.99979691 0.16683478 -2.99979691 0.16683478 0 0 Z " fill="#407D45" transform="translate(260.041259765625,260.886474609375)"/>
<path d="M0 0 C25.74 0 51.48 0 78 0 C78 10.89 78 21.78 78 33 C76.68 33 75.36 33 74 33 C73.68546875 31.90300781 73.3709375 30.80601562 73.046875 29.67578125 C72.6151855 28.22117532 72.18286009 26.76675801 71.75 25.3125 C71.54503906 24.59126953 71.34007812 23.87003906 71.12890625 23.12695312 C69.76693665 18.60769036 68.14159823 15.61820822 65 12 C65 11.34 65 10.68 65 10 C57.73135978 7.41716861 51.05966149 6.4934051 43.375 6.3125 C39.95125 6.209375 36.5275 6.10625 33 6 C33 15.57 33 25.14 33 35 C27.8334375 35.0309375 27.8334375 35.0309375 22.5625 35.0625 C21.47525635 35.071604 20.3880127 35.08070801 19.26782227 35.09008789 C18.41760498 35.09258545 17.5673877 35.09508301 16.69140625 35.09765625 C15.81685791 35.10289307 14.94230957 35.10812988 14.04125977 35.11352539 C12 35 12 35 11 34 C10.91224395 31.85441173 10.89304781 29.70595579 10.90234375 27.55859375 C10.90556641 26.25341797 10.90878906 24.94824219 10.91210938 23.60351562 C10.92046599 22.2148431 10.92893095 20.82617123 10.9375 19.4375 C10.94251334 18.04492344 10.94707653 16.65234519 10.95117188 15.25976562 C10.96300566 11.8398013 10.9794912 8.41992156 11 5 C7.37 5 3.74 5 0 5 C0 3.35 0 1.7 0 0 Z " fill="#407D45" transform="translate(150,180)"/>
<path d="M0 0 C0.87454834 0.00523682 1.74909668 0.01047363 2.65014648 0.01586914 C3.50036377 0.0183667 4.35058105 0.02086426 5.2265625 0.0234375 C6.85742798 0.03709351 6.85742798 0.03709351 8.52124023 0.05102539 C11.96561523 0.07165039 15.40999023 0.09227539 18.95874023 0.11352539 C18.95874023 9.02352539 18.95874023 17.93352539 18.95874023 27.11352539 C25.42467773 26.95883789 25.42467773 26.95883789 32.02124023 26.80102539 C33.36710205 26.77613037 34.71296387 26.75123535 36.09960938 26.72558594 C42.46212171 26.53030608 47.33355732 26.14847151 52.95874023 23.11352539 C53.94874023 22.78352539 54.93874023 22.45352539 55.95874023 22.11352539 C57.41252485 19.249679 58.22524583 16.23622903 59.10717773 13.16040039 C59.30827148 12.45915039 59.50936523 11.75790039 59.71655273 11.03540039 C60.13154825 9.57503643 60.5350253 8.11135489 60.92749023 6.64477539 C61.54467773 4.53540039 61.54467773 4.53540039 62.95874023 1.11352539 C65.06030273 0.06665039 65.06030273 0.06665039 66.95874023 0.11352539 C67.95874023 1.11352539 67.95874023 1.11352539 68.09155273 3.13305664 C68.06345873 13.17666308 67.46260477 23.03623465 66.95874023 33.11352539 C39.89874023 33.11352539 12.83874023 33.11352539 -15.04125977 33.11352539 C-14.71125977 31.46352539 -14.38125977 29.81352539 -14.04125977 28.11352539 C-10.41125977 28.11352539 -6.78125977 28.11352539 -3.04125977 28.11352539 C-3.04649658 27.30085205 -3.0517334 26.48817871 -3.05712891 25.65087891 C-3.07782971 21.99260217 -3.09089779 18.33433772 -3.10375977 14.67602539 C-3.11632812 12.75693359 -3.11632812 12.75693359 -3.12915039 10.79907227 C-3.13398438 8.97666016 -3.13398438 8.97666016 -3.13891602 7.11743164 C-3.14415283 5.99151611 -3.14938965 4.86560059 -3.15478516 3.70556641 C-2.99979691 0.16683478 -2.99979691 0.16683478 0 0 Z " fill="#407D46" transform="translate(164.041259765625,260.886474609375)"/>
<path d="M0 0 C14.85 0 29.7 0 45 0 C45 1.65 45 3.3 45 5 C41.04 5 37.08 5 33 5 C33 14.9 33 24.8 33 35 C26.07 35 19.14 35 12 35 C11.67 25.1 11.34 15.2 11 5 C7.37 5 3.74 5 0 5 C0 3.35 0 1.7 0 0 Z " fill="#3F7D45" transform="translate(358,180)"/>
<path d="M0 0 C6.93 0 13.86 0 21 0 C21 9.24 21 18.48 21 28 C24.96 28 28.92 28 33 28 C33 29.65 33 31.3 33 33 C18.15 33 3.3 33 -12 33 C-12 31.35 -12 29.7 -12 28 C-8.37 27.67 -4.74 27.34 -1 27 C-1.01160156 25.21851563 -1.02320313 23.43703125 -1.03515625 21.6015625 C-1.04453335 19.27604271 -1.05363363 16.95052179 -1.0625 14.625 C-1.07087891 13.449375 -1.07925781 12.27375 -1.08789062 11.0625 C-1.09111328 9.94101562 -1.09433594 8.81953125 -1.09765625 7.6640625 C-1.10289307 6.62717285 -1.10812988 5.5902832 -1.11352539 4.52197266 C-1 2 -1 2 0 0 Z " fill="#3F7D45" transform="translate(370,261)"/>
<path d="M0 0 C15.30704464 -1.97021367 15.30704464 -1.97021367 21.1875 2.33203125 C23.6016222 5.01903152 25.61509071 7.97673513 27.60791016 10.98388672 C30.16985311 14.69425587 33.1200528 18.09747004 36 21.5625 C38.01282708 24.03152094 40.01113126 26.511654 42 29 C42.928125 30.15822266 42.928125 30.15822266 43.875 31.33984375 C45 33 45 33 45 35 C34.11 35 23.22 35 12 35 C12 25.1 12 15.2 12 5 C8.04 5 4.08 5 0 5 C0 3.35 0 1.7 0 0 Z " fill="#407D45" transform="translate(37,180)"/>
<path d="M0 0 C10.56 0 21.12 0 32 0 C32 11.55 32 23.1 32 35 C30.02 35 28.04 35 26 35 C24.09031328 33.06259202 22.74270915 31.40950243 21.25 29.1875 C20.38974709 27.98646977 19.52505975 26.78860493 18.65625 25.59375 C18.21925781 24.98917969 17.78226563 24.38460938 17.33203125 23.76171875 C15.29792076 21.07144359 13.05088519 18.65471424 10.75 16.1875 C0 4.57275237 0 4.57275237 0 0 Z " fill="#3F7D45" transform="translate(95,261)"/>
<path d="M0 0 C0.92941406 0.00644531 1.85882813 0.01289062 2.81640625 0.01953125 C5.16388102 0.16996555 7.18804544 0.52589572 9.4375 1.1875 C9.4375 1.8475 9.4375 2.5075 9.4375 3.1875 C9.994375 3.39375 10.55125 3.6 11.125 3.8125 C15.78463619 6.58309449 18.4473106 10.24212539 19.9375 15.375 C21.08238642 21.68792515 19.33615977 28.09242448 16.01171875 33.51171875 C15.49222656 34.06472656 14.97273438 34.61773437 14.4375 35.1875 C13.4475 35.1875 12.4575 35.1875 11.4375 35.1875 C11.1075 36.5075 10.7775 37.8275 10.4375 39.1875 C4.34410831 41.07091198 -0.28782201 41.2623291 -6.5625 40.1875 C-6.2325 38.5375 -5.9025 36.8875 -5.5625 35.1875 C-1.6025 35.1875 2.3575 35.1875 6.4375 35.1875 C6.4375 33.2075 6.4375 31.2275 6.4375 29.1875 C8.4375 27.3125 8.4375 27.3125 10.4375 26.1875 C9.2729799 24.52128575 9.2729799 24.52128575 7.4375 23.1875 C5.76327014 23.48049023 4.09571773 23.81440101 2.4375 24.1875 C1.4475 23.5275 0.4575 22.8675 -0.5625 22.1875 C-1.2225 22.1875 -1.8825 22.1875 -2.5625 22.1875 C-2.35625 22.93 -2.15 23.6725 -1.9375 24.4375 C-1.51841249 27.51080841 -1.94300989 28.61536866 -3.5625 31.1875 C-4.2225 31.1875 -4.8825 31.1875 -5.5625 31.1875 C-5.8925 32.5075 -6.2225 33.8275 -6.5625 35.1875 C-8.9375 35.8125 -8.9375 35.8125 -11.5625 36.1875 C-13.5625 34.1875 -13.5625 34.1875 -14.375 31.6875 C-15.34351228 28.95166516 -15.34351228 28.95166516 -18.13671875 28.03125 C-18.93722656 27.7528125 -19.73773438 27.474375 -20.5625 27.1875 C-20.87585705 20.11955776 -21.09708302 14.44099303 -17.5625 8.1875 C-15.5625 6.1875 -15.5625 6.1875 -13.6171875 5.9921875 C-11.59895833 6.05729167 -9.58072917 6.12239583 -7.5625 6.1875 C-8.5525 5.8575 -9.5425 5.5275 -10.5625 5.1875 C-10.5625 4.1975 -10.5625 3.2075 -10.5625 2.1875 C-6.88491949 0.49888318 -4.03823354 -0.06178104 0 0 Z M-5.5625 2.1875 C-4.9025 4.1675 -4.2425 6.1475 -3.5625 8.1875 C-6.92673277 11.14802484 -10.25409287 12.11039822 -14.5625 13.1875 C-13.9025 13.8475 -13.2425 14.5075 -12.5625 15.1875 C-11.5725 15.1875 -10.5825 15.1875 -9.5625 15.1875 C-9.5625 16.5075 -9.5625 17.8275 -9.5625 19.1875 C-14.0175 18.1975 -14.0175 18.1975 -18.5625 17.1875 C-19.50036082 22.23759595 -19.50036082 22.23759595 -18.5625 27.1875 C-17.593125 27.47625 -16.62375 27.765 -15.625 28.0625 C-12.5625 29.1875 -12.5625 29.1875 -11.1875 31.8125 C-10.98125 32.59625 -10.775 33.38 -10.5625 34.1875 C-7.21634408 33.45606072 -7.21634408 33.45606072 -5.8125 29.875 C-4.41260528 25.90464418 -4.41260528 25.90464418 -5.5625 22.1875 C-5.8925 21.1975 -6.2225 20.2075 -6.5625 19.1875 C-5.5725 19.5175 -4.5825 19.8475 -3.5625 20.1875 C-3.2325 18.8675 -2.9025 17.5475 -2.5625 16.1875 C-1.985 16.826875 -1.4075 17.46625 -0.8125 18.125 C1.41812401 20.16973868 2.51186391 20.76955199 5.4375 21.1875 C5.7675 20.5275 6.0975 19.8675 6.4375 19.1875 C7.0975 19.1875 7.7575 19.1875 8.4375 19.1875 C9.0975 20.5075 9.7575 21.8275 10.4375 23.1875 C12.4999994 21.37527466 12.4999994 21.37527466 14.4375 19.1875 C14.4375 18.1975 14.4375 17.2075 14.4375 16.1875 C15.4275 16.1875 16.4175 16.1875 17.4375 16.1875 C16.21834942 9.9393533 12.41202989 6.76325119 7.4375 3.1875 C4.42259443 2.18253148 2.39568308 2.08414697 -0.75 2.125 C-1.65105469 2.13402344 -2.55210937 2.14304687 -3.48046875 2.15234375 C-4.51107422 2.16974609 -4.51107422 2.16974609 -5.5625 2.1875 Z M-11.5625 9.1875 C-11.2325 9.8475 -10.9025 10.5075 -10.5625 11.1875 C-9.9025 10.5275 -9.2425 9.8675 -8.5625 9.1875 C-9.5525 9.1875 -10.5425 9.1875 -11.5625 9.1875 Z M9.625 28.6875 C9.233125 29.1825 8.84125 29.6775 8.4375 30.1875 C8.7675 31.1775 9.0975 32.1675 9.4375 33.1875 C11.88974694 33.08136164 11.88974694 33.08136164 14.4375 32.1875 C15.81216625 29.71113988 15.81216625 29.71113988 16.4375 27.1875 C12.72013359 26.83849442 12.72013359 26.83849442 9.625 28.6875 Z M-3.5625 36.1875 C-3.8925 37.1775 -4.2225 38.1675 -4.5625 39.1875 C-1.9225 39.1875 0.7175 39.1875 3.4375 39.1875 C3.1075 38.5275 2.7775 37.8675 2.4375 37.1875 C-0.59184491 36.52977572 -0.59184491 36.52977572 -3.5625 36.1875 Z " fill="#4D7E53" transform="translate(369.5625,123.8125)"/>
<path d="M0 0 C0.87454834 0.00523682 1.74909668 0.01047363 2.65014648 0.01586914 C3.50036377 0.0183667 4.35058105 0.02086426 5.2265625 0.0234375 C6.85742798 0.03709351 6.85742798 0.03709351 8.52124023 0.05102539 C11.96561523 0.07165039 15.40999023 0.09227539 18.95874023 0.11352539 C18.95874023 9.02352539 18.95874023 17.93352539 18.95874023 27.11352539 C34.23520333 26.92818633 34.23520333 26.92818633 47.58374023 20.42602539 C52.77754828 14.72399269 55.72279362 6.98281558 58.95874023 0.11352539 C65.55874023 0.11352539 72.15874023 0.11352539 78.95874023 0.11352539 C79.95874023 3.11352539 79.95874023 3.11352539 78.91967773 5.60180664 C71.74188401 18.38393685 62.8737667 26.12724315 48.95874023 31.11352539 C41.44440191 33.16694708 34.13714548 33.38104776 26.38842773 33.30883789 C25.22618683 33.306008 24.06394592 33.3031781 22.8664856 33.30026245 C19.18879486 33.28915198 15.51135619 33.26406439 11.83374023 33.23852539 C9.32593127 33.22848379 6.81811846 33.21936001 4.31030273 33.21118164 C-1.80696939 33.18924261 -7.92409656 33.15585704 -14.04125977 33.11352539 C-14.60375977 31.17602539 -14.60375977 31.17602539 -15.04125977 29.11352539 C-14.04125977 28.11352539 -14.04125977 28.11352539 -11.53735352 28.01586914 C-10.52801758 28.0274707 -9.51868164 28.03907227 -8.47875977 28.05102539 C-7.4668457 28.06004883 -6.45493164 28.06907227 -5.41235352 28.07836914 C-4.23866211 28.09577148 -4.23866211 28.09577148 -3.04125977 28.11352539 C-3.04649658 27.30085205 -3.0517334 26.48817871 -3.05712891 25.65087891 C-3.07782971 21.99260217 -3.09089779 18.33433772 -3.10375977 14.67602539 C-3.11632812 12.75693359 -3.11632812 12.75693359 -3.12915039 10.79907227 C-3.13398438 8.97666016 -3.13398438 8.97666016 -3.13891602 7.11743164 C-3.14415283 5.99151611 -3.14938965 4.86560059 -3.15478516 3.70556641 C-2.99979691 0.16683478 -2.99979691 0.16683478 0 0 Z M-1.04125977 2.11352539 C-1.04125977 11.02352539 -1.04125977 19.93352539 -1.04125977 29.11352539 C-1.70125977 29.11352539 -2.36125977 29.11352539 -3.04125977 29.11352539 C-3.04125977 29.77352539 -3.04125977 30.43352539 -3.04125977 31.11352539 C2.77124529 31.23893627 8.58293013 31.32870137 14.39648438 31.38818359 C16.36602529 31.41302927 18.33547702 31.44691834 20.3046875 31.49072266 C38.24522372 31.87924382 53.93013495 30.49170653 67.95874023 18.11352539 C67.95874023 17.45352539 67.95874023 16.79352539 67.95874023 16.11352539 C68.61874023 16.11352539 69.27874023 16.11352539 69.95874023 16.11352539 C72.92031986 12.95450713 77.95874023 6.78465136 77.95874023 2.11352539 C72.01874023 2.11352539 66.07874023 2.11352539 59.95874023 2.11352539 C59.40186523 3.78415039 58.84499023 5.45477539 58.27124023 7.17602539 C55.11501536 15.74292149 51.36831577 21.17559379 42.95874023 25.11352539 C34.35718563 28.5513859 26.06919237 28.44548519 16.95874023 28.11352539 C16.96397705 27.36143799 16.96921387 26.60935059 16.97460938 25.83447266 C16.9953125 22.44833197 17.008379 19.06220455 17.02124023 15.67602539 C17.02961914 14.49202148 17.03799805 13.30801758 17.04663086 12.08813477 C17.04985352 10.96342773 17.05307617 9.8387207 17.05639648 8.67993164 C17.0616333 7.63780518 17.06687012 6.59567871 17.07226562 5.52197266 C17.23179579 3.16223792 17.23179579 3.16223792 15.95874023 2.11352539 C13.09404698 2.04022208 10.2598035 2.02134708 7.39624023 2.05102539 C4.61186523 2.07165039 1.82749023 2.09227539 -1.04125977 2.11352539 Z " fill="#4D7E52" transform="translate(260.041259765625,260.886474609375)"/>
<path d="M0 0 C0.87454834 0.00523682 1.74909668 0.01047363 2.65014648 0.01586914 C3.50036377 0.0183667 4.35058105 0.02086426 5.2265625 0.0234375 C6.85742798 0.03709351 6.85742798 0.03709351 8.52124023 0.05102539 C11.96561523 0.07165039 15.40999023 0.09227539 18.95874023 0.11352539 C18.95874023 9.02352539 18.95874023 17.93352539 18.95874023 27.11352539 C25.42467773 26.95883789 25.42467773 26.95883789 32.02124023 26.80102539 C33.36710205 26.77613037 34.71296387 26.75123535 36.09960938 26.72558594 C42.46212171 26.53030608 47.33355732 26.14847151 52.95874023 23.11352539 C53.94874023 22.78352539 54.93874023 22.45352539 55.95874023 22.11352539 C57.41252485 19.249679 58.22524583 16.23622903 59.10717773 13.16040039 C59.30827148 12.45915039 59.50936523 11.75790039 59.71655273 11.03540039 C60.13154825 9.57503643 60.5350253 8.11135489 60.92749023 6.64477539 C61.54467773 4.53540039 61.54467773 4.53540039 62.95874023 1.11352539 C65.06030273 0.06665039 65.06030273 0.06665039 66.95874023 0.11352539 C67.95874023 1.11352539 67.95874023 1.11352539 68.09155273 3.13305664 C68.06345873 13.17666308 67.46260477 23.03623465 66.95874023 33.11352539 C39.89874023 33.11352539 12.83874023 33.11352539 -15.04125977 33.11352539 C-14.71125977 31.46352539 -14.38125977 29.81352539 -14.04125977 28.11352539 C-10.41125977 28.11352539 -6.78125977 28.11352539 -3.04125977 28.11352539 C-3.04649658 27.30085205 -3.0517334 26.48817871 -3.05712891 25.65087891 C-3.07782971 21.99260217 -3.09089779 18.33433772 -3.10375977 14.67602539 C-3.11632812 12.75693359 -3.11632812 12.75693359 -3.12915039 10.79907227 C-3.13398438 8.97666016 -3.13398438 8.97666016 -3.13891602 7.11743164 C-3.14415283 5.99151611 -3.14938965 4.86560059 -3.15478516 3.70556641 C-2.99979691 0.16683478 -2.99979691 0.16683478 0 0 Z M-0.04125977 2.11352539 C-0.83832745 5.61345235 -1.15989004 8.82774849 -1.13891602 12.41430664 C-1.13569336 13.39077148 -1.1324707 14.36723633 -1.12915039 15.37329102 C-1.12077148 16.38069336 -1.11239258 17.3880957 -1.10375977 18.42602539 C-1.09924805 19.45276367 -1.09473633 20.47950195 -1.09008789 21.53735352 C-1.07834161 24.06280421 -1.06191541 26.58813444 -1.04125977 29.11352539 C-3.35125977 29.44352539 -5.66125977 29.77352539 -8.04125977 30.11352539 C-8.04125977 30.44352539 -8.04125977 30.77352539 -8.04125977 31.11352539 C15.71874023 31.11352539 39.47874023 31.11352539 63.95874023 31.11352539 C63.95874023 30.45352539 63.95874023 29.79352539 63.95874023 29.11352539 C64.94874023 28.61852539 64.94874023 28.61852539 65.95874023 28.11352539 C65.95874023 19.86352539 65.95874023 11.61352539 65.95874023 3.11352539 C63.64887875 3.97572703 63.64887875 3.97572703 63.02905273 6.84399414 C62.56112305 8.55522461 62.56112305 8.55522461 62.08374023 10.30102539 C60.1339108 16.89433751 58.23176121 22.52894198 51.95874023 26.11352539 C44.98892649 28.84170963 37.91041501 28.33550598 30.52124023 28.23852539 C29.21735352 28.22950195 27.9134668 28.22047852 26.57006836 28.21118164 C23.36621292 28.18771017 20.16245252 28.15184222 16.95874023 28.11352539 C16.95874023 19.86352539 16.95874023 11.61352539 16.95874023 3.11352539 C13.89340859 1.58085957 10.69119752 2.01076068 7.33374023 2.05102539 C6.27413086 2.05779297 6.27413086 2.05779297 5.19311523 2.06469727 C3.44828748 2.07648664 1.70350324 2.09442215 -0.04125977 2.11352539 Z " fill="#4C7D51" transform="translate(164.041259765625,260.886474609375)"/>
<path d="M0 0 C0.74507813 0.30035156 1.49015625 0.60070312 2.2578125 0.91015625 C11.32919732 5.01895996 20.23936639 12.23041176 25 21 C14.71426792 33.73314099 1.41669446 42.54057012 -15 45 C-33.53596169 46.52873911 -48.59429225 40.97394041 -62.72265625 29.1484375 C-67.78068086 24.37671617 -67.78068086 24.37671617 -68.39453125 20.5234375 C-67.47997714 14.67391317 -61.94143811 10.50867172 -57.4765625 7.0390625 C-40.14079234 -4.60284767 -19.50477117 -7.98424769 0 0 Z M-45 2 C-45.97324219 2.47050781 -46.94648438 2.94101563 -47.94921875 3.42578125 C-53.1185445 6.09671458 -57.87417237 8.87417237 -62 13 C-62.63292383 15.11280345 -62.63292383 15.11280345 -63 17 C-65.0625 18.25 -65.0625 18.25 -67 19 C-66.21869929 21.49552484 -66.21869929 21.49552484 -65 24 C-64.01 24.33 -63.02 24.66 -62 25 C-61.67 25.99 -61.34 26.98 -61 28 C-60.34 28 -59.68 28 -59 28 C-59 28.66 -59 29.32 -59 30 C-55.63830287 33.0471163 -52.12018938 35.13009994 -48.0625 37.125 C-47.06347656 37.62257812 -46.06445312 38.12015625 -45.03515625 38.6328125 C-37.65537848 41.95703672 -31.00624528 42.58162139 -23 43 C-22.16210938 43.07734375 -21.32421875 43.1546875 -20.4609375 43.234375 C-12.12144325 43.73641813 -3.41649212 40.70824606 4 37 C4 36.34 4 35.68 4 35 C4.886875 34.7525 5.77375 34.505 6.6875 34.25 C10.13156256 32.95035375 12.33024803 31.51270773 15 29 C15 28.34 15 27.68 15 27 C15.99 27 16.98 27 18 27 C21.0944324 24.01333617 21.0944324 24.01333617 22.0625 20 C20.52814052 17.11179392 18.38544228 15.21901607 16 13 C15.319375 12.29875 14.63875 11.5975 13.9375 10.875 C10.70984233 7.75146032 7.32005907 5.51345963 3.3125 3.5 C2.52488281 3.0978125 1.73726563 2.695625 0.92578125 2.28125 C-6.7819552 -1.09410054 -13.36964348 -2.5299963 -21.8125 -2.4375 C-23.26716675 -2.42614014 -23.26716675 -2.42614014 -24.7512207 -2.41455078 C-32.09814541 -2.24582583 -38.33738509 -1.24640157 -45 2 Z " fill="#4D7E53" transform="translate(391,124)"/>
<path d="M0 0 C25.74 0 51.48 0 78 0 C78 9.9 78 19.8 78 30 C77.67 30 77.34 30 77 30 C76.67 20.76 76.34 11.52 76 2 C51.91 2 27.82 2 3 2 C3.98267859 3.20561184 3.98267859 3.20561184 5.84765625 3.09765625 C7.8984375 3.06510417 9.94921875 3.03255208 12 3 C14.30650294 9.27685723 14.05537201 14.82268227 13.625 21.4375 C13.56828125 22.45521484 13.5115625 23.47292969 13.453125 24.52148438 C13.31264859 27.0149406 13.15777518 29.50757857 13 32 C18.61 32 24.22 32 30 32 C30.33 23.09 30.66 14.18 31 5 C35.66860854 3.44379715 40.35991937 3.77423832 45.25 3.75 C46.27480469 3.729375 47.29960937 3.70875 48.35546875 3.6875 C55.80880015 3.64913021 60.87724671 4.31297972 66.6875 9.3125 C71.92896073 15.40392733 73.76591511 20.32318607 75.2890625 28.171875 C75.77125924 31.11351322 75.77125924 31.11351322 78 33 C76.68 33 75.36 33 74 33 C73.68546875 31.90300781 73.3709375 30.80601562 73.046875 29.67578125 C72.6151855 28.22117532 72.18286009 26.76675801 71.75 25.3125 C71.54503906 24.59126953 71.34007812 23.87003906 71.12890625 23.12695312 C69.76693665 18.60769036 68.14159823 15.61820822 65 12 C65 11.34 65 10.68 65 10 C57.73135978 7.41716861 51.05966149 6.4934051 43.375 6.3125 C39.95125 6.209375 36.5275 6.10625 33 6 C33 15.57 33 25.14 33 35 C27.8334375 35.0309375 27.8334375 35.0309375 22.5625 35.0625 C21.47525635 35.071604 20.3880127 35.08070801 19.26782227 35.09008789 C18.41760498 35.09258545 17.5673877 35.09508301 16.69140625 35.09765625 C15.81685791 35.10289307 14.94230957 35.10812988 14.04125977 35.11352539 C12 35 12 35 11 34 C10.91224395 31.85441173 10.89304781 29.70595579 10.90234375 27.55859375 C10.90556641 26.25341797 10.90878906 24.94824219 10.91210938 23.60351562 C10.92046599 22.2148431 10.92893095 20.82617123 10.9375 19.4375 C10.94251334 18.04492344 10.94707653 16.65234519 10.95117188 15.25976562 C10.96300566 11.8398013 10.9794912 8.41992156 11 5 C7.37 5 3.74 5 0 5 C0 3.35 0 1.7 0 0 Z " fill="#4D7F52" transform="translate(150,180)"/>
<path d="M0 0 C5.61 0 11.22 0 17 0 C17 1.98 17 3.96 17 6 C16.01 6.33 15.02 6.66 14 7 C14 5.35 14 3.7 14 2 C11.69 2 9.38 2 7 2 C7 3.65 7 5.3 7 7 C7.99 7 8.98 7 10 7 C10 6.01 10 5.02 10 4 C10.66 4 11.32 4 12 4 C12 6.64 12 9.28 12 12 C11.34 12 10.68 12 10 12 C10 11.34 10 10.68 10 10 C9.01 10 8.02 10 7 10 C7 11.65 7 13.3 7 15 C9.31 15 11.62 15 14 15 C14 13.35 14 11.7 14 10 C14.99 10 15.98 10 17 10 C17.33 10.66 17.66 11.32 18 12 C18 11.34 18 10.68 18 10 C18.82352941 5.17647059 18.82352941 5.17647059 20 4 C22.9375 3.8125 22.9375 3.8125 26 4 C29.00617269 7.00617269 28.59585316 9.82381598 29 14 C29.66 13.01 30.32 12.02 31 11 C31.33 10.67 31.66 10.34 32 10 C32.165 9.175 32.33 8.35 32.5 7.5 C33 5 33 5 34 4 C36.9375 3.8125 36.9375 3.8125 40 4 C40.66 4.66 41.32 5.32 42 6 C41.835 6.61875 41.67 7.2375 41.5 7.875 C40.85893032 10.59954614 41.58206113 11.66457128 43 14 C41 17 41 17 39.20297241 17.36076355 C38.47905304 17.35410172 37.75513367 17.34743988 37.00927734 17.34057617 C35.77822769 17.34023628 35.77822769 17.34023628 34.52230835 17.33988953 C33.63580597 17.32440567 32.74930359 17.30892181 31.8359375 17.29296875 C30.92872955 17.28872391 30.02152161 17.28447906 29.08682251 17.28010559 C26.18258268 17.26328133 23.2790309 17.2256226 20.375 17.1875 C18.40886417 17.17245799 16.44271749 17.15876875 14.4765625 17.14648438 C9.65077561 17.11336557 4.82550455 17.06155786 0 17 C0 16.34 0 15.68 0 15 C0.99 15 1.98 15 3 15 C3 10.71 3 6.42 3 2 C2.01 2 1.02 2 0 2 C0 1.34 0 0.68 0 0 Z M22 7 C22 7.66 22 8.32 22 9 C22.66 9 23.32 9 24 9 C24 8.34 24 7.68 24 7 C23.34 7 22.68 7 22 7 Z M35 7 C35.33 7.66 35.66 8.32 36 9 C36.66 9 37.32 9 38 9 C38 8.34 38 7.68 38 7 C37.01 7 36.02 7 35 7 Z M35 12 C35 12.99 35 13.98 35 15 C36.32 15 37.64 15 39 15 C39 14.34 39 13.68 39 13 C37.68 12.67 36.36 12.34 35 12 Z M23 12 C22.01 12.495 22.01 12.495 21 13 C21.33 13.66 21.66 14.32 22 15 C22.66 14.67 23.32 14.34 24 14 C23.67 13.34 23.34 12.68 23 12 Z " fill="#4D7F53" transform="translate(101,229)"/>
<path d="M0 0 C0.98613281 -0.01283524 1.97226563 -0.02567047 2.98828125 -0.03889465 C4.06722656 -0.04628159 5.14617187 -0.05366852 6.2578125 -0.0612793 C7.92650391 -0.07338692 7.92650391 -0.07338692 9.62890625 -0.08573914 C11.99965851 -0.09961474 14.37043104 -0.11032122 16.74121094 -0.11816406 C20.31225913 -0.13516221 23.88232849 -0.17898935 27.453125 -0.22338867 C59.82102034 -0.4447963 59.82102034 -0.4447963 72.3828125 9.17700195 C71.7228125 9.50700195 71.0628125 9.83700195 70.3828125 10.17700195 C68.52064816 9.47869033 66.69134173 8.69185747 64.8828125 7.86450195 C53.36352893 2.90213755 41.31250856 1.99925042 28.875 2.0793457 C27.59775558 2.08146812 27.59775558 2.08146812 26.29470825 2.08363342 C23.61570491 2.08916276 20.93678993 2.10170121 18.2578125 2.11450195 C16.42448039 2.11952611 14.59114694 2.1240874 12.7578125 2.12817383 C8.29944591 2.13910889 3.84114411 2.15632324 -0.6171875 2.17700195 C3.8378125 3.16700195 3.8378125 3.16700195 8.3828125 4.17700195 C8.3828125 13.74700195 8.3828125 23.31700195 8.3828125 33.17700195 C16.3028125 32.68200195 16.3028125 32.68200195 24.3828125 32.17700195 C24.47369141 30.13319336 24.47369141 30.13319336 24.56640625 28.0480957 C24.65086664 26.23688962 24.73551184 24.42569214 24.8203125 22.61450195 C24.85962891 21.71924805 24.89894531 20.82399414 24.93945312 19.90161133 C25.60351562 5.95629883 25.60351562 5.95629883 27.3828125 4.17700195 C37.69973346 3.50319876 46.91360229 3.50496872 56.3828125 8.17700195 C56.3828125 8.83700195 56.3828125 9.49700195 56.3828125 10.17700195 C55.7021875 9.97204102 55.0215625 9.76708008 54.3203125 9.5559082 C45.5679527 7.12340395 37.42532186 6.56676529 28.3828125 6.17700195 C28.3828125 15.74700195 28.3828125 25.31700195 28.3828125 35.17700195 C23.21625 35.20793945 23.21625 35.20793945 17.9453125 35.23950195 C16.85806885 35.24860596 15.7708252 35.25770996 14.65063477 35.26708984 C13.80041748 35.2695874 12.9502002 35.27208496 12.07421875 35.2746582 C11.19967041 35.27989502 10.32512207 35.28513184 9.42407227 35.29052734 C7.3828125 35.17700195 7.3828125 35.17700195 6.3828125 34.17700195 C6.29505645 32.03141369 6.27586031 29.88295774 6.28515625 27.7355957 C6.28837891 26.43041992 6.29160156 25.12524414 6.29492188 23.78051758 C6.30327849 22.39184506 6.31174345 21.00317318 6.3203125 19.61450195 C6.32532584 18.2219254 6.32988903 16.82934714 6.33398438 15.43676758 C6.34581816 12.01680325 6.3623037 8.59692351 6.3828125 5.17700195 C2.7528125 5.17700195 -0.8771875 5.17700195 -4.6171875 5.17700195 C-4.9471875 3.85700195 -5.2771875 2.53700195 -5.6171875 1.17700195 C-4.00200855 -0.438177 -2.23392139 0.02526914 0 0 Z " fill="#4D7E52" transform="translate(250.6171875,179.822998046875)"/>
<path d="M0 0 C9.9 0 19.8 0 30 0 C30 1.65 30 3.3 30 5 C26.37 5 22.74 5 19 5 C19.00785522 6.30988892 19.00785522 6.30988892 19.01586914 7.64624023 C19.03287751 10.87589273 19.04543369 14.10552245 19.05493164 17.33520508 C19.0599708 18.73495228 19.06680216 20.1346942 19.07543945 21.53442383 C19.0875232 23.54245777 19.09269807 25.55052957 19.09765625 27.55859375 C19.10551147 29.37315063 19.10551147 29.37315063 19.11352539 31.22436523 C19 34 19 34 18 35 C15.5 35.125 15.5 35.125 13 35 C12 34 12 34 11.88647461 31.22436523 C11.89171143 30.01466064 11.89694824 28.80495605 11.90234375 27.55859375 C11.90556641 26.25341797 11.90878906 24.94824219 11.91210938 23.60351562 C11.92046599 22.2148431 11.92893095 20.82617123 11.9375 19.4375 C11.94251334 18.04492344 11.94707653 16.65234519 11.95117188 15.25976562 C11.96300566 11.8398013 11.9794912 8.41992156 12 5 C8.04 5 4.08 5 0 5 C0 3.35 0 1.7 0 0 Z " fill="#4D7F52" transform="translate(108,180)"/>
<path d="M0 0 C2.5 0.125 2.5 0.125 3.5 1.125 C3.58758003 3.12464982 3.60696576 5.1273611 3.59765625 7.12890625 C3.59443359 8.34384766 3.59121094 9.55878906 3.58789062 10.81054688 C3.57951172 12.08994141 3.57113281 13.36933594 3.5625 14.6875 C3.55798828 15.97076172 3.55347656 17.25402344 3.54882812 18.57617188 C3.53699555 21.7591342 3.51905944 24.94207274 3.5 28.125 C7.46 28.125 11.42 28.125 15.5 28.125 C15.5 29.775 15.5 31.425 15.5 33.125 C5.6 33.125 -4.3 33.125 -14.5 33.125 C-14.5 31.475 -14.5 29.825 -14.5 28.125 C-10.54 28.125 -6.58 28.125 -2.5 28.125 C-2.58378906 26.18753906 -2.66757812 24.25007813 -2.75390625 22.25390625 C-2.85704145 19.73178188 -2.95989135 17.20964584 -3.0625 14.6875 C-3.11857422 13.40810547 -3.17464844 12.12871094 -3.23242188 10.81054688 C-3.28076172 9.59560547 -3.32910156 8.38066406 -3.37890625 7.12890625 C-3.4260376 6.00299072 -3.47316895 4.8770752 -3.52172852 3.71704102 C-3.49286102 0.27337591 -3.42544727 0.17127236 0 0 Z " fill="#4C7D51" transform="translate(52.5,260.875)"/>
<path d="M0 0 C6.93 0 13.86 0 21 0 C21 9.24 21 18.48 21 28 C24.96 28 28.92 28 33 28 C33 29.65 33 31.3 33 33 C18.15 33 3.3 33 -12 33 C-12 31.35 -12 29.7 -12 28 C-8.37 27.67 -4.74 27.34 -1 27 C-1.01160156 25.21851563 -1.02320313 23.43703125 -1.03515625 21.6015625 C-1.04453335 19.27604271 -1.05363363 16.95052179 -1.0625 14.625 C-1.07087891 13.449375 -1.07925781 12.27375 -1.08789062 11.0625 C-1.09111328 9.94101562 -1.09433594 8.81953125 -1.09765625 7.6640625 C-1.10289307 6.62717285 -1.10812988 5.5902832 -1.11352539 4.52197266 C-1 2 -1 2 0 0 Z M2 2 C1.28350014 5.58249931 0.87219134 8.24846081 0.8671875 11.79296875 C0.86589844 12.67017578 0.86460937 13.54738281 0.86328125 14.45117188 C0.86714844 15.35416016 0.87101562 16.25714844 0.875 17.1875 C0.87113281 18.10208984 0.86726563 19.01667969 0.86328125 19.95898438 C0.86457031 20.83232422 0.86585938 21.70566406 0.8671875 22.60546875 C0.86831543 23.40106201 0.86944336 24.19665527 0.87060547 25.01635742 C0.8760923 27.07555521 0.8760923 27.07555521 2 29 C0.02 29.33 -1.96 29.66 -4 30 C-4 30.33 -4 30.66 -4 31 C-2.06375954 31.20008844 -0.12587132 31.38423302 1.8125 31.5625 C2.89144531 31.66691406 3.97039062 31.77132813 5.08203125 31.87890625 C10.06093278 32.03279054 15.03917805 31.45098381 20 31 C19.67 21.43 19.34 11.86 19 2 C13.39 2 7.78 2 2 2 Z " fill="#4C7D52" transform="translate(370,261)"/>
<path d="M0 0 C2.97 0 5.94 0 9 0 C9 0.66 9 1.32 9 2 C8.34 2 7.68 2 7 2 C7 6.29 7 10.58 7 15 C7.99 15 8.98 15 10 15 C10 13.741875 10 12.48375 10 11.1875 C10 8.79166667 10 6.39583333 10 4 C11.60332791 3.91878076 13.20784026 3.86070866 14.8125 3.8125 C15.70582031 3.77769531 16.59914063 3.74289063 17.51953125 3.70703125 C20 4 20 4 21.78125 5.25 C23.8975226 8.28875039 23.70186405 11.36274135 24 15 C24.66 14.67 25.32 14.34 26 14 C26.40729228 11.67843403 26.74438677 9.3431213 27 7 C26.34 7 25.68 7 25 7 C25 6.01 25 5.02 25 4 C27.475 4.495 27.475 4.495 30 5 C30.06058594 5.69867188 30.12117188 6.39734375 30.18359375 7.1171875 C30.30927734 8.48230469 30.30927734 8.48230469 30.4375 9.875 C30.51871094 10.77992188 30.59992188 11.68484375 30.68359375 12.6171875 C30.86989285 15.01110861 30.86989285 15.01110861 32 17 C21.44 17 10.88 17 0 17 C0 16.34 0 15.68 0 15 C0.99 15 1.98 15 3 15 C3 10.71 3 6.42 3 2 C2.01 2 1.02 2 0 2 C0 1.34 0 0.68 0 0 Z M16 7 C14.64560332 9.70879335 14.93498549 12.00933268 15 15 C16.32 15 17.64 15 19 15 C19 12.69 19 10.38 19 8 C18.01 7.67 17.02 7.34 16 7 Z " fill="#4E7E53" transform="translate(315,229)"/>
<path d="M0 0 C14.85 0 29.7 0 45 0 C45 1.65 45 3.3 45 5 C41.04 5 37.08 5 33 5 C33 14.9 33 24.8 33 35 C26.07 35 19.14 35 12 35 C11.67 25.1 11.34 15.2 11 5 C7.37 5 3.74 5 0 5 C0 3.35 0 1.7 0 0 Z M3 1 C3 1.66 3 2.32 3 3 C5.97 3.33 8.94 3.66 12 4 C12.80060093 7.49149873 13.10016094 10.65263054 13.02734375 14.23046875 C13.01509766 15.19791016 13.00285156 16.16535156 12.99023438 17.16210938 C12.95487268 19.19082309 12.91576728 21.21947478 12.87304688 23.24804688 C12.86208984 24.21162109 12.85113281 25.17519531 12.83984375 26.16796875 C12.81458618 27.48704224 12.81458618 27.48704224 12.78881836 28.83276367 C12.78909749 31.21256135 12.78909749 31.21256135 15 33 C17.56292317 33.17163731 20.00345857 33.23264558 22.5625 33.1875 C23.60954102 33.1865332 23.60954102 33.1865332 24.67773438 33.18554688 C28.12850043 33.4548138 28.12850043 33.4548138 31 32 C31.0752379 30.18112373 31.08314304 28.35937717 31.0625 26.5390625 C31.05476563 25.42789063 31.04703125 24.31671875 31.0390625 23.171875 C31.01310686 20.81510322 30.98706577 18.45833237 30.9609375 16.1015625 C30.95320313 14.9878125 30.94546875 13.8740625 30.9375 12.7265625 C30.92589844 11.70127441 30.91429687 10.67598633 30.90234375 9.61962891 C31 7 31 7 32 4 C35.3 3.67 38.6 3.34 42 3 C40.04260658 0.60160517 40.04260658 0.60160517 36.37646484 0.77294922 C34.82125311 0.77326643 33.26601949 0.78459701 31.7109375 0.8046875 C30.89251373 0.8075174 30.07408997 0.81034729 29.23086548 0.81326294 C26.61209607 0.82447468 23.99366636 0.84958071 21.375 0.875 C19.60156743 0.88502853 17.82812951 0.8941546 16.0546875 0.90234375 C11.70299374 0.92441722 7.3515545 0.95895356 3 1 Z " fill="#4C7D52" transform="translate(358,180)"/>
<path d="M0 0 C15.30704464 -1.97021367 15.30704464 -1.97021367 21.1875 2.33203125 C23.6016222 5.01903152 25.61509071 7.97673513 27.60791016 10.98388672 C30.16985311 14.69425587 33.1200528 18.09747004 36 21.5625 C38.01282708 24.03152094 40.01113126 26.511654 42 29 C42.928125 30.15822266 42.928125 30.15822266 43.875 31.33984375 C45 33 45 33 45 35 C34.11 35 23.22 35 12 35 C12 25.1 12 15.2 12 5 C8.04 5 4.08 5 0 5 C0 3.35 0 1.7 0 0 Z M4 3 C8.61507774 4.04214691 8.61507774 4.04214691 13 3 C13.33 12.57 13.66 22.14 14 32 C17.69534804 32.73906961 20.41862133 33.12013116 24.08203125 33.09765625 C25.01337891 33.09443359 25.94472656 33.09121094 26.90429688 33.08789062 C27.86400391 33.07951172 28.82371094 33.07113281 29.8125 33.0625 C30.79154297 33.05798828 31.77058594 33.05347656 32.77929688 33.04882812 C35.18626111 33.03708684 37.59309857 33.02066419 40 33 C40 28.69171997 39.80999585 28.2561676 37.125 25.25 C36.59132812 24.63640625 36.05765625 24.0228125 35.5078125 23.390625 C34.0968314 21.77401211 34.0968314 21.77401211 32 22 C31.773125 21.46375 31.54625 20.9275 31.3125 20.375 C29.54429911 17.17539839 27.46329797 14.70962777 25 12 C24.34 12 23.68 12 23 12 C22.938125 11.278125 22.87625 10.55625 22.8125 9.8125 C21.66401488 5.83697459 20.37486593 4.42990347 17 2 C9.97400136 0.23850975 9.97400136 0.23850975 4 3 Z " fill="#4D7D52" transform="translate(37,180)"/>
<path d="M0 0 C10.56 0 21.12 0 32 0 C32 11.55 32 23.1 32 35 C26 35 26 35 23.8828125 33.03125 C23.01269531 31.77828125 23.01269531 31.77828125 22.125 30.5 C21.52945313 29.6646875 20.93390625 28.829375 20.3203125 27.96875 C19.88460937 27.3190625 19.44890625 26.669375 19 26 C22 26 22 26 24.1875 27.875 C26 30 26 30 26 32 C27.32 32 28.64 32 30 32 C30 22.1 30 12.2 30 2 C28.68 2.33 27.36 2.66 26 3 C23.38439738 3.09531671 20.80202632 3.13948491 18.1875 3.125 C17.50107422 3.12886719 16.81464844 3.13273437 16.10742188 3.13671875 C11.64144643 3.12826847 7.40685936 2.72583566 3 2 C4.07972738 3.4194169 5.16395863 4.8354083 6.25 6.25 C6.85328125 7.03890625 7.4565625 7.8278125 8.078125 8.640625 C9.95304638 11.02399684 9.95304638 11.02399684 12.09375 13.09375 C14.48512814 15.48512814 16.18903616 18.15419968 18 21 C17.67 21.66 17.34 22.32 17 23 C0 4.85053381 0 4.85053381 0 0 Z " fill="#4D7E53" transform="translate(95,261)"/>
<path d="M0 0 C5.94 0 11.88 0 18 0 C19.44521205 4.33563616 20.77053131 8.60904041 22 13 C19.69 13 17.38 13 15 13 C15.33 9.7 15.66 6.4 16 3 C15.01 3 14.02 3 13 3 C13.33 6.3 13.66 9.6 14 13 C9.38 13 4.76 13 0 13 C0.66 9.7 1.32 6.4 2 3 C1.34 3 0.68 3 0 3 C0 2.01 0 1.02 0 0 Z M6 3 C6 5.97 6 8.94 6 12 C6.99 11.67 7.98 11.34 9 11 C9 8.36 9 5.72 9 3 C8.01 3 7.02 3 6 3 Z " fill="#4E7F53" transform="translate(251,233)"/>
<path d="M0 0 C2.64 0 5.28 0 8 0 C9.65 2.97 11.3 5.94 13 9 C13.33 6.69 13.66 4.38 14 2 C13.01 1.67 12.02 1.34 11 1 C11 0.67 11 0.34 11 0 C13.97 0 16.94 0 20 0 C20 0.66 20 1.32 20 2 C19.01 2 18.02 2 17 2 C17 6.95 17 11.9 17 17 C15.35 17 13.7 17 12 17 C10.35 13.7 8.7 10.4 7 7 C6.67 9.64 6.34 12.28 6 15 C6.66 15 7.32 15 8 15 C8 15.66 8 16.32 8 17 C5.36 17 2.72 17 0 17 C0 16.34 0 15.68 0 15 C0.99 15 1.98 15 3 15 C3 10.71 3 6.42 3 2 C2.01 2 1.02 2 0 2 C0 1.34 0 0.68 0 0 Z " fill="#4D7D52" transform="translate(28,229)"/>
<path d="M0 0 C1.65 0 3.3 0 5 0 C5 3.63 5 7.26 5 11 C5.66 11 6.32 11 7 11 C8.21690533 9.23470405 8.21690533 9.23470405 9 7 C8.21690533 4.76529595 8.21690533 4.76529595 7 3 C8.125 1.5 8.125 1.5 10 0 C13.0625 -0.3125 13.0625 -0.3125 16 0 C18.76223278 2.76223278 18.57856291 5.20706617 19 9 C19.99 9 20.98 9 22 9 C21.67 10.32 21.34 11.64 21 13 C14.07 13 7.14 13 0 13 C0 12.34 0 11.68 0 11 C0.66 11 1.32 11 2 11 C1.855625 9.741875 1.71125 8.48375 1.5625 7.1875 C1.48128906 6.47980469 1.40007812 5.77210938 1.31640625 5.04296875 C1.02829265 2.80603607 1.02829265 2.80603607 0 0 Z M12 3 C11.67 3.99 11.34 4.98 11 6 C11.99 5.67 12.98 5.34 14 5 C14 4.34 14 3.68 14 3 C13.34 3 12.68 3 12 3 Z M13 8 C12.01 8.495 12.01 8.495 11 9 C11.33 9.66 11.66 10.32 12 11 C12.66 10.67 13.32 10.34 14 10 C13.67 9.34 13.34 8.68 13 8 Z " fill="#4E7F53" transform="translate(357,233)"/>
<path d="M0 0 C2.08153935 -0.13536022 4.16561206 -0.23215465 6.25 -0.3125 C7.41015625 -0.37050781 8.5703125 -0.42851562 9.765625 -0.48828125 C13 0 13 0 15.38671875 2.30078125 C17.51985328 5.86977873 17.65785727 7.90666588 17 12 C15.25 14.9375 15.25 14.9375 12 17 C7.96486476 17.4092855 4.04056058 17.28999239 0 17 C0 16.34 0 15.68 0 15 C0.66 15 1.32 15 2 15 C2 10.71 2 6.42 2 2 C1.34 2 0.68 2 0 2 C0 1.34 0 0.68 0 0 Z M7 2 C7 6.29 7 10.58 7 15 C11.5841963 13.54711014 11.5841963 13.54711014 13 12 C13.41692853 8.58399407 13.41692853 8.58399407 13 5 C11.2515605 2.97891823 11.2515605 2.97891823 9 2 C8.34 2 7.68 2 7 2 Z " fill="#4D7E53" transform="translate(159,229)"/>
<path d="M0 0 C0.33 1.32 0.66 2.64 1 4 C2.32 4 3.64 4 5 4 C4.67 4.99 4.34 5.98 4 7 C3.01 7 2.02 7 1 7 C1 9.64 1 12.28 1 15 C1.66 15 2.32 15 3 15 C3.33 13.68 3.66 12.36 4 11 C4.66 11 5.32 11 6 11 C5.67 12.98 5.34 14.96 5 17 C3.00045254 17.04254356 0.99958364 17.04080783 -1 17 C-3.04698414 14.95301586 -2.70045693 10.69588759 -3 8 C-4.65 8.33 -6.3 8.66 -8 9 C-8.33 10.98 -8.66 12.96 -9 15 C-8.01 15.33 -7.02 15.66 -6 16 C-6 16.33 -6 16.66 -6 17 C-8.97 17 -11.94 17 -15 17 C-14.34 16.67 -13.68 16.34 -13 16 C-13.33 12.04 -13.66 8.08 -14 4 C-10.04 4 -6.08 4 -2 4 C-1.34 2.68 -0.68 1.36 0 0 Z " fill="#4D7F53" transform="translate(75,229)"/>
<path d="M0 0 C1.32 0.33 2.64 0.66 4 1 C4 1.66 4 2.32 4 3 C4.90878906 3.36544922 4.90878906 3.36544922 5.8359375 3.73828125 C10.57924711 6.50378487 12.80889064 12.81833542 14.25 17.9375 C14.4975 18.948125 14.745 19.95875 15 21 C15.33 21.66 15.66 22.32 16 23 C20.62 22.67 25.24 22.34 30 22 C27.97698956 13.90795825 24.11225275 8.52214956 17.57421875 3.41015625 C16.79498047 2.71212891 16.79498047 2.71212891 16 2 C16 1.34 16 0.68 16 0 C23.26885935 2.40188396 27.97326939 8.59968869 31.4375 15.25 C32.73053235 18.11641242 33.71288729 20.84176014 34 24 C33 25 33 25 31.14233398 25.11352539 C30.35157471 25.10828857 29.56081543 25.10305176 28.74609375 25.09765625 C27.89208984 25.09443359 27.03808594 25.09121094 26.15820312 25.08789062 C24.81145508 25.07532227 24.81145508 25.07532227 23.4375 25.0625 C22.53580078 25.05798828 21.63410156 25.05347656 20.70507812 25.04882812 C18.46998686 25.03700225 16.23502563 25.0205222 14 25 C13.72027344 24.24976563 13.44054687 23.49953125 13.15234375 22.7265625 C10.26840612 15.36371209 6.74587788 9.29994369 2 3 C1.34 2.01 0.68 1.02 0 0 Z " fill="#4D7E52" transform="translate(307,190)"/>
<path d="M0 0 C0.66 0 1.32 0 2 0 C2 1.32 2 2.64 2 4 C5.63 4 9.26 4 13 4 C13.22786458 6.79947917 13.45572917 9.59895833 13.68359375 12.3984375 C13.84965626 14.97927613 13.84965626 14.97927613 15 17 C12.52076199 17.02685095 10.0418116 17.04676547 7.5625 17.0625 C6.85544922 17.07087891 6.14839844 17.07925781 5.41992188 17.08789062 C3.61306441 17.09653588 1.80612397 17.05220011 0 17 C-1 16 -1 16 -1.09765625 13.93359375 C-1.08025391 12.69802734 -1.08025391 12.69802734 -1.0625 11.4375 C-1.05347656 10.61121094 -1.04445313 9.78492188 -1.03515625 8.93359375 C-1.02355469 8.29550781 -1.01195312 7.65742188 -1 7 C-1.66 7 -2.32 7 -3 7 C-2.38722388 4.03824877 -1.74627478 2.61941217 0 0 Z M2 7 C1.92851801 8.35243917 1.91600546 9.70834367 1.9375 11.0625 C1.958125 12.361875 1.97875 13.66125 2 15 C2.66 15 3.32 15 4 15 C4 13.68 4 12.36 4 11 C4.99 11 5.98 11 7 11 C7 12.32 7 13.64 7 15 C7.66 15 8.32 15 9 15 C9.020625 13.700625 9.04125 12.40125 9.0625 11.0625 C9.07410156 10.33160156 9.08570313 9.60070312 9.09765625 8.84765625 C9.20561184 6.98267859 9.20561184 6.98267859 8 6 C4.71105107 5.59371033 4.71105107 5.59371033 2 7 Z " fill="#4D7F53" transform="translate(381,229)"/>
<path d="M0 0 C1.98 0 3.96 0 6 0 C6 1.32 6 2.64 6 4 C6.78375 3.95875 7.5675 3.9175 8.375 3.875 C11 4 11 4 13 6 C13.1953125 8.1640625 13.1953125 8.1640625 13.125 10.625 C13.10695313 11.44226563 13.08890625 12.25953125 13.0703125 13.1015625 C13.03550781 14.04128906 13.03550781 14.04128906 13 15 C13.99 15.33 14.98 15.66 16 16 C16 16.33 16 16.66 16 17 C10.72 17 5.44 17 0 17 C0 16.34 0 15.68 0 15 C0.66 15 1.32 15 2 15 C2 10.71 2 6.42 2 2 C1.34 2 0.68 2 0 2 C0 1.34 0 0.68 0 0 Z M7 7 C5.64560332 9.70879335 5.93498549 12.00933268 6 15 C6.99 15.495 6.99 15.495 8 16 C8.66 15.67 9.32 15.34 10 15 C10 12.69 10 10.38 10 8 C9.01 7.67 8.02 7.34 7 7 Z " fill="#4D7E53" transform="translate(81,229)"/>
<path d="M0 0 C1.60332791 -0.08121924 3.20784026 -0.13929134 4.8125 -0.1875 C6.15248047 -0.23970703 6.15248047 -0.23970703 7.51953125 -0.29296875 C10 0 10 0 11.8046875 1.2578125 C13.97817206 4.42570177 13.29756867 7.25063479 13 11 C10.64046906 13.35953094 9.22104383 13.49141413 6 14 C6.99 15.485 6.99 15.485 8 17 C5.03 17 2.06 17 -1 17 C-0.67 16.34 -0.34 15.68 0 15 C0.66 15 1.32 15 2 15 C2 11.04 2 7.08 2 3 C1.34 3 0.68 3 0 3 C0 2.01 0 1.02 0 0 Z M6 3 C5.20046862 6.28696233 4.90341064 7.71023192 6 11 C7.32 10.67 8.64 10.34 10 10 C10 8.02 10 6.04 10 4 C8.68 3.67 7.36 3.34 6 3 Z " fill="#4D7F52" transform="translate(237,233)"/>
<path d="M0 0 C0.93779297 0.00322266 1.87558594 0.00644531 2.84179688 0.00976562 C4.30649414 0.02233398 4.30649414 0.02233398 5.80078125 0.03515625 C7.28288086 0.04192383 7.28288086 0.04192383 8.79492188 0.04882812 C11.23443599 0.06061322 13.67382814 0.07706614 16.11328125 0.09765625 C16.11328125 0.75765625 16.11328125 1.41765625 16.11328125 2.09765625 C15.40300781 2.15824219 14.69273437 2.21882812 13.9609375 2.28125 C13.04183594 2.36503906 12.12273437 2.44882813 11.17578125 2.53515625 C9.80099609 2.65697266 9.80099609 2.65697266 8.3984375 2.78125 C6.15168393 2.85810601 6.15168393 2.85810601 5.11328125 4.09765625 C4.95485475 6.16850345 4.86203703 8.24443654 4.796875 10.3203125 C4.75498047 11.58037109 4.71308594 12.84042969 4.66992188 14.13867188 C4.63010529 15.47916361 4.59039311 16.81965845 4.55078125 18.16015625 C4.50760083 19.50457148 4.46398669 20.84897285 4.41992188 22.19335938 C4.31342767 25.49467965 4.21141665 28.79607861 4.11328125 32.09765625 C3.45328125 32.09765625 2.79328125 32.09765625 2.11328125 32.09765625 C2.11328125 22.52765625 2.11328125 12.95765625 2.11328125 3.09765625 C-0.52671875 3.09765625 -3.16671875 3.09765625 -5.88671875 3.09765625 C-6.54671875 2.43765625 -7.20671875 1.77765625 -7.88671875 1.09765625 C-4.94539984 0.11721661 -3.0617021 -0.01855577 0 0 Z " fill="#427C47" transform="translate(119.88671875,180.90234375)"/>
<path d="M0 0 C0.721875 0.185625 1.44375 0.37125 2.1875 0.5625 C4.98785845 1.16752429 4.98785845 1.16752429 7.6875 0.4375 C8.8321875 0.2209375 8.8321875 0.2209375 10 0 C12.92577938 2.92577938 12.42659177 5.78336157 12.65625 9.78515625 C12.82640625 10.88150391 12.82640625 10.88150391 13 12 C13.66 12.33 14.32 12.66 15 13 C9.72 13 4.44 13 -1 13 C-0.34 12.67 0.32 12.34 1 12 C0.9278125 11.38511719 0.855625 10.77023438 0.78125 10.13671875 C0.6884375 9.32847656 0.595625 8.52023438 0.5 7.6875 C0.4071875 6.88699219 0.314375 6.08648437 0.21875 5.26171875 C0 3 0 3 0 0 Z M5 3 C5 5.97 5 8.94 5 12 C6.32 11.67 7.64 11.34 9 11 C9 8.69 9 6.38 9 4 C7.68 3.67 6.36 3.34 5 3 Z " fill="#4D7F53" transform="translate(286,233)"/>
<path d="M0 0 C2.31 0 4.62 0 7 0 C6.979375 0.804375 6.95875 1.60875 6.9375 2.4375 C6.70366379 4.93354885 6.70366379 4.93354885 8 6 C8 4.02 8 2.04 8 0 C10.31 0 12.62 0 15 0 C14.71382812 0.56203125 14.42765625 1.1240625 14.1328125 1.703125 C12.98584069 4.02870923 11.92160206 6.37770201 10.875 8.75 C10.34519531 9.94882813 10.34519531 9.94882813 9.8046875 11.171875 C9.53914062 11.77515625 9.27359375 12.3784375 9 13 C7.68 13 6.36 13 5 13 C4.35309078 11.3962669 3.70751236 9.79199694 3.0625 8.1875 C2.70285156 7.29417969 2.34320313 6.40085938 1.97265625 5.48046875 C1.26386514 3.6729091 0.6139753 1.84192591 0 0 Z " fill="#4E8053" transform="translate(189,233)"/>
<path d="M0 0 C1.875 1.8125 1.875 1.8125 3 4 C3 4.99 3 5.98 3 7 C0.36 7 -2.28 7 -5 7 C-4.67 7.99 -4.34 8.98 -4 10 C-1.83125748 9.49396008 -0.00032373 9.00016187 2 8 C1.67 9.65 1.34 11.3 1 13 C-5.34507042 13.35915493 -5.34507042 13.35915493 -7.9375 11.9375 C-9.6140629 8.88023824 -9.36528977 6.4093712 -9 3 C-6.85106865 -0.70093733 -4.00059138 -0.58341958 0 0 Z M-5 3 C-5 3.66 -5 4.32 -5 5 C-3.68 5 -2.36 5 -1 5 C-1 4.34 -1 3.68 -1 3 C-2.32 3 -3.64 3 -5 3 Z " fill="#4D7F53" transform="translate(419,233)"/>
<path d="M0 0 C1.9375 2.375 1.9375 2.375 3 5 C2.67 5.66 2.34 6.32 2 7 C-0.31 7 -2.62 7 -5 7 C-4.67 7.99 -4.34 8.98 -4 10 C-3.01 10.33 -2.02 10.66 -1 11 C-1 10.34 -1 9.68 -1 9 C-0.01 8.67 0.98 8.34 2 8 C1.125 11.875 1.125 11.875 0 13 C-3.4375 13.1875 -3.4375 13.1875 -7 13 C-9 11 -9 11 -9.3125 7.0625 C-9.2339218 4.51564191 -9.13665953 3.24295027 -7.875 1 C-5.03310267 -0.51567857 -3.15857715 -0.52642952 0 0 Z M-5 3 C-5 3.66 -5 4.32 -5 5 C-3.68 4.67 -2.36 4.34 -1 4 C-2.32 3.67 -3.64 3.34 -5 3 Z " fill="#4E8053" transform="translate(213,233)"/>
<path d="M0 0 C1.875 1 1.875 1 3 3 C3.36095911 5.80173027 3.22716238 8.13775402 3 11 C1 13 1 13 -2.4375 13.25 C-6 13 -6 13 -9 11 C-9.65158371 4.15837104 -9.65158371 4.15837104 -7.875 1 C-5.10184376 -0.47901666 -3.08815875 -0.38601984 0 0 Z M-4 3 C-5.35618499 4.12534105 -5.35618499 4.12534105 -5.0625 7.0625 C-5.041875 8.031875 -5.02125 9.00125 -5 10 C-3.05396726 10.59070014 -3.05396726 10.59070014 -1 11 C0.35618499 9.87465895 0.35618499 9.87465895 0.0625 6.9375 C0.041875 5.968125 0.02125 4.99875 0 4 C-1.94603274 3.40929986 -1.94603274 3.40929986 -4 3 Z " fill="#4D7F52" transform="translate(57,233)"/>
<path d="M0 0 C1.9375 2.375 1.9375 2.375 3 5 C2.67 5.66 2.34 6.32 2 7 C-0.31 7 -2.62 7 -5 7 C-4.67 7.99 -4.34 8.98 -4 10 C-2.02 9.67 -0.04 9.34 2 9 C1.67 10.32 1.34 11.64 1 13 C-5.0546875 13.1953125 -5.0546875 13.1953125 -7 13 C-9 11 -9 11 -9.3125 7.0625 C-9.2339218 4.51564191 -9.13665953 3.24295027 -7.875 1 C-5.03310267 -0.51567857 -3.15857715 -0.52642952 0 0 Z M-5 3 C-5 3.66 -5 4.32 -5 5 C-3.68 5 -2.36 5 -1 5 C-1 4.34 -1 3.68 -1 3 C-2.32 3 -3.64 3 -5 3 Z " fill="#4D8053" transform="translate(186,233)"/>
<path d="M0 0 C2.31 0 4.62 0 7 0 C6.979375 0.804375 6.95875 1.60875 6.9375 2.4375 C6.70366379 4.93354885 6.70366379 4.93354885 8 6 C8 4.02 8 2.04 8 0 C10.31 0 12.62 0 15 0 C13.31326082 4.49797113 11.18326108 8.72886302 9 13 C7.109375 12.81640625 7.109375 12.81640625 5 12 C3.953125 9.71484375 3.953125 9.71484375 3.25 6.9375 C2.88648438 5.55884766 2.88648438 5.55884766 2.515625 4.15234375 C2.34546875 3.44207031 2.1753125 2.73179687 2 2 C1.34 2 0.68 2 0 2 C0 1.34 0 0.68 0 0 Z " fill="#4D7F53" transform="translate(395,233)"/>
<path d="M0 0 C3.4375 0.8125 3.4375 0.8125 5.4375 3.8125 C5.75912076 6.9000593 5.92474515 8.95265561 4.375 11.6875 C1.37017901 13.43223477 -1.17060131 13.12085443 -4.5625 12.8125 C-6.98772207 10.38727793 -6.85879254 9.6404321 -6.875 6.3125 C-6.89175781 5.5184375 -6.90851563 4.724375 -6.92578125 3.90625 C-6.74595703 2.86984375 -6.74595703 2.86984375 -6.5625 1.8125 C-3.5625 -0.1875 -3.5625 -0.1875 0 0 Z M-2.5625 2.8125 C-3.91868499 3.93784105 -3.91868499 3.93784105 -3.625 6.875 C-3.604375 7.844375 -3.58375 8.81375 -3.5625 9.8125 C-1.61646726 10.40320014 -1.61646726 10.40320014 0.4375 10.8125 C1.79368499 9.68715895 1.79368499 9.68715895 1.5 6.75 C1.479375 5.780625 1.45875 4.81125 1.4375 3.8125 C-0.50853274 3.22179986 -0.50853274 3.22179986 -2.5625 2.8125 Z " fill="#4D7F52" transform="translate(231.5625,233.1875)"/>
<path d="M0 0 C1 1 1 1 1.0625 3.5625 C1.041875 4.366875 1.02125 5.17125 1 6 C-1.31 6 -3.62 6 -6 6 C-5.67 6.99 -5.34 7.98 -5 9 C-2.83125748 8.49396008 -1.00032373 8.00016187 1 7 C1 8.32 1 9.64 1 11 C-1.77100394 12.38550197 -3.9334706 12.1877467 -7 12 C-7.99 11.34 -8.98 10.68 -10 10 C-10.77902622 2.98876404 -10.77902622 2.98876404 -8.375 -0.0625 C-5.22486274 -1.30597523 -3.23097953 -0.86159454 0 0 Z M-6 2 C-6 2.66 -6 3.32 -6 4 C-4.68 4 -3.36 4 -2 4 C-2 3.34 -2 2.68 -2 2 C-3.32 2 -4.64 2 -6 2 Z " fill="#4D7F53" transform="translate(283,234)"/>
<path d="M0 0 C0.66 0 1.32 0 2 0 C2 8.91 2 17.82 2 27 C3.65 27.33 5.3 27.66 7 28 C7 28.33 7 28.66 7 29 C3.37 29 -0.26 29 -4 29 C-2.68 28.34 -1.36 27.68 0 27 C-0.33 26.34 -0.66 25.68 -1 25 C-1.09654283 23.19865652 -1.1307544 21.39377131 -1.1328125 19.58984375 C-1.13410156 18.51798828 -1.13539062 17.44613281 -1.13671875 16.34179688 C-1.13285156 15.21837891 -1.12898438 14.09496094 -1.125 12.9375 C-1.12886719 11.81021484 -1.13273437 10.68292969 -1.13671875 9.52148438 C-1.13478516 7.91563477 -1.13478516 7.91563477 -1.1328125 6.27734375 C-1.13112061 4.79609009 -1.13112061 4.79609009 -1.12939453 3.28491211 C-1 1 -1 1 0 0 Z " fill="#407C46" transform="translate(52,263)"/>
<path d="M0 0 C0.99 0.33 1.98 0.66 3 1 C3 1.99 3 2.98 3 4 C4.32 4 5.64 4 7 4 C7 4.66 7 5.32 7 6 C5.68 6 4.36 6 3 6 C3.33 8.64 3.66 11.28 4 14 C4.33 13.01 4.66 12.02 5 11 C5.66 11 6.32 11 7 11 C7.042721 12.66611905 7.04063832 14.33382885 7 16 C6 17 6 17 3 17.125 C0 17 0 17 -1 16 C-1.23421634 14.54843703 -1.41338404 13.08775657 -1.5625 11.625 C-1.64628906 10.83351562 -1.73007812 10.04203125 -1.81640625 9.2265625 C-2.12968942 5.42717083 -1.83163405 3.31983671 0 0 Z " fill="#4E8053" transform="translate(349,229)"/>
<path d="M0 0 C0.33 1.32 0.66 2.64 1 4 C2.32 4 3.64 4 5 4 C5 4.66 5 5.32 5 6 C4.01 6.33 3.02 6.66 2 7 C2 9.31 2 11.62 2 14 C2.33 13.01 2.66 12.02 3 11 C3.99 11 4.98 11 6 11 C6.042721 12.66611905 6.04063832 14.33382885 6 16 C5 17 5 17 2 17.125 C-1 17 -1 17 -2 16 C-2.23503102 14.56950256 -2.41381264 13.1295314 -2.5625 11.6875 C-2.64628906 10.90761719 -2.73007812 10.12773437 -2.81640625 9.32421875 C-2.98247913 7.22180671 -3 5.10896103 -3 3 C-1.5 1.25 -1.5 1.25 0 0 Z " fill="#4D7F52" transform="translate(304,229)"/>
<path d="M0 0 C0.66 0.33 1.32 0.66 2 1 C2 1.99 2 2.98 2 4 C3.32 4 4.64 4 6 4 C6 4.66 6 5.32 6 6 C5.01 6.33 4.02 6.66 3 7 C2.67 9.64 2.34 12.28 2 15 C2.66 15 3.32 15 4 15 C4.33 13.68 4.66 12.36 5 11 C5.33 11 5.66 11 6 11 C6.042721 12.66611905 6.04063832 14.33382885 6 16 C5 17 5 17 2.5625 17.25 C1.716875 17.1675 0.87125 17.085 0 17 C-2.45904149 13.31143777 -2.15290851 11.35789262 -2 7 C-2 5.68 -2 4.36 -2 3 C-1.34 2.01 -0.68 1.02 0 0 Z " fill="#4D7E52" transform="translate(147,229)"/>
<path d="M0 0 C1.98 0 3.96 0 6 0 C6.06058594 1.05960938 6.12117187 2.11921875 6.18359375 3.2109375 C6.26800127 4.59897221 6.35264917 5.98699232 6.4375 7.375 C6.47681641 8.07367188 6.51613281 8.77234375 6.55664062 9.4921875 C6.74280134 13.37360492 6.74280134 13.37360492 8 17 C5.36 17 2.72 17 0 17 C0.33 16.34 0.66 15.68 1 15 C1.22950319 12.795636 1.41075933 10.58607827 1.5625 8.375 C1.64628906 7.18648437 1.73007813 5.99796875 1.81640625 4.7734375 C1.87699219 3.85820312 1.93757812 2.94296875 2 2 C1.34 2 0.68 2 0 2 C0 1.34 0 0.68 0 0 Z " fill="#4D7F53" transform="translate(216,229)"/>
<path d="M0 0 C3.63 0 7.26 0 11 0 C11.33 0.99 11.66 1.98 12 3 C4.41 3 -3.18 3 -11 3 C-11 2.67 -11 2.34 -11 2 C-7.37 2 -3.74 2 0 2 C0 1.34 0 0.68 0 0 Z " fill="#47764D" transform="translate(390,290)"/>
<path d="M0 0 C0.99 0.33 1.98 0.66 3 1 C3 1.99 3 2.98 3 4 C1.68 4 0.36 4 -1 4 C-0.67 2.68 -0.34 1.36 0 0 Z " fill="#4E7F53" transform="translate(391,228)"/>
<path d="M0 0 C0.99 0.33 1.98 0.66 3 1 C3 1.99 3 2.98 3 4 C1.68 3.67 0.36 3.34 -1 3 C-0.67 2.01 -0.34 1.02 0 0 Z " fill="#4E8053" transform="translate(359,228)"/>
<path d="M0 0 C0.99 0.33 1.98 0.66 3 1 C2.67 1.99 2.34 2.98 2 4 C1.01 3.67 0.02 3.34 -1 3 C-0.67 2.01 -0.34 1.02 0 0 Z " fill="#4E8054" transform="translate(342,228)"/>
<path d="M0 0 C0.99 0.33 1.98 0.66 3 1 C3 1.33 3 1.66 3 2 C1.35 2 -0.3 2 -2 2 C-1.34 1.34 -0.68 0.68 0 0 Z " fill="#528557" transform="translate(207,213)"/>
</svg>
